# xmcd CD database file
#
# Track frame offsets:
#	183
#	12970
#	25630
#	39638
#	50838
#	65718
#	80403
#	92225
#	107150
#	122905
#	135553
#	149833
#	162333
#	174423
#	187898
#	203158
#
# Disc length: 2905 seconds
#
# Revision: 0
# Processed by: cddbd v1.5.1PL2 Copyright (c) Steve Scherf et al.
# Submitted via: CDex 1.51
#
DISCID=e50b5710
DTITLE=Fats Waller - Fats Sings Waller
DYEAR=1941
DGENRE=Jazz
TTITLE0=How Can You Face Me?
TTITLE1=The Joint Is Jumpin'
TTITLE2=What Will I Do In The Morning?
TTITLE3=How Y A Baby?
TTITLE4=Honey Hush
TTITLE5=Anita
TTITLE6=The Spider And The Fly
TTITLE7=Honeysuckle Rose
TTITLE8=Ain't Misbehavin'
TTITLE9=I'm Crazy 'bout My Baby
TTITLE10=Squeeze Me
TTITLE11=All That Meat And No Potatoes
TTITLE12=Come And Get It
TTITLE13=Bessie, Bessie, Bessie
TTITLE14=Cash For Your Trash
TTITLE15=Up Jumped You With Love
EXTD=YEAR: 1941
EXTT0=
EXTT1=
EXTT2=
EXTT3=
EXTT4=
EXTT5=
EXTT6=
EXTT7=
EXTT8=
EXTT9=
EXTT10=
EXTT11=
EXTT12=
EXTT13=
EXTT14=
EXTT15=
PLAYORDER=
